Coordinates
version=1
nRows=16
nColumns=22
inDegrees=yes

Units are S.I. units (second, meters, Newtons, ...)
If the header above contains a line with 'inDegrees', this indicates whether rotational values are in degrees (yes) or radians (no).

endheader
time	pelvis_tilt	pelvis_list	pelvis_rotation	pelvis_tx	pelvis_ty	pelvis_tz	hip_flexion_r	hip_adduction_r	hip_rotation_r	knee_angle_r	ankle_angle_r	subtalar_angle_r	hip_flexion_l	hip_adduction_l	hip_rotation_l	knee_angle_l	ankle_angle_l	subtalar_angle_l	lumbar_extension	lumbar_bending	lumbar_rotation
      0.01000000	    -13.42531757	     -2.17106047	     -2.24239676	     -0.77693100	      0.97861321	      0.24696957	     19.51722060	      3.29341764	     -3.72314914	    -16.61451640	     16.02982479	     -5.13171488	     20.07631462	     -1.55135221	     -6.31798434	    -17.26427655	     17.91604039	     -2.16505454	      8.04089788	      3.83835597	      3.41937143
      0.02000000	    -13.42603157	     -2.17073303	     -2.24240000	     -0.77691527	      0.97861642	      0.24697538	     19.51707866	      3.29342441	     -3.72317229	    -16.61469999	     16.02976401	     -5.13163390	     20.07613881	     -1.55149108	     -6.31799473	    -17.26432907	     17.91603063	     -2.16503121	      8.04058988	      3.83834975	      3.41930888
      0.03000000	    -13.42672267	     -2.17022847	     -2.24264973	     -0.77689782	      0.97861945	      0.24698387	     19.51697102	      3.29349695	     -3.72323986	    -16.61493174	     16.02963767	     -5.13153976	     20.07595517	     -1.55171630	     -6.31801729	    -17.26439048	     17.91599236	     -2.16500137	      8.04020162	      3.83821366	      3.41914505
      0.04000000	    -13.42696602	     -2.16837457	     -2.24790017	     -0.77688076	      0.97862228	      0.24701029	     19.51750567	      3.29417950	     -3.72394101	    -16.61607977	     16.02858749	     -5.13076597	     20.07499011	     -1.55269349	     -6.31827902	    -17.26509326	     17.91550989	     -2.16475012	      8.03896312	      3.83518438	      3.41741579
      0.05000000	    -13.42755372	     -2.16762478	     -2.24818659	     -0.77686142	      0.97862528	      0.24702294	     19.51730266	      3.29438417	     -3.72393805	    -16.61641292	     16.02848752	     -5.13066761	     20.07480150	     -1.55275479	     -6.31834688	    -17.26531278	     17.91544864	     -2.16472439	      8.03863123	      3.83514879	      3.41739439
      0.06000000	    -13.42662339	     -2.16481108	     -2.25647148	     -0.77683711	      0.97862666	      0.24705964	     19.51671727	      3.29506947	     -3.72371956	    -16.61833998	     16.02811463	     -5.12961022	     20.07301657	     -1.55355638	     -6.31806198	    -17.26916953	     17.91485797	     -2.16448329	      8.03843941	      3.83148083	      3.41755701
      0.07000000	    -13.42503625	     -2.16205324	     -2.26431039	     -0.77681038	      0.97862882	      0.24709490	     19.51510522	      3.29587864	     -3.72194233	    -16.62064091	     16.02861601	     -5.12830385	     20.07156378	     -1.55406806	     -6.31729205	    -17.27474298	     17.91468168	     -2.16428305	      8.03816022	      3.82824701	      3.42075663
      0.08000000	    -13.42271095	     -2.15974053	     -2.27332156	     -0.77678094	      0.97862969	      0.24713504	     19.51210850	      3.29759867	     -3.71907952	    -16.62264697	     16.03008575	     -5.12694696	     20.07026465	     -1.55497520	     -6.31466207	    -17.28260422	     17.91526472	     -2.16418205	      8.03847370	      3.82512679	      3.42642348
      0.09000000	    -13.40903222	     -2.16204073	     -2.29921425	     -0.77675977	      0.97863961	      0.24721467	     19.49861702	      3.31313401	     -3.67408592	    -16.62771870	     16.04551163	     -5.11100341	     20.05947505	     -1.56811343	     -6.32981361	    -17.30015168	     17.93621695	     -2.16542166	      8.02114013	      3.82715486	      3.47148257
      0.10000000	    -13.40732147	     -2.15952095	     -2.31058173	     -0.77672047	      0.97863912	      0.24725563	     19.49450703	      3.31459364	     -3.67572000	    -16.62682894	     16.04542266	     -5.11045032	     20.05752740	     -1.56850500	     -6.32529849	    -17.30707247	     17.93602787	     -2.16538094	      8.02494010	      3.82582212	      3.47185051
      0.11000000	    -13.40083667	     -2.16249823	     -2.32043807	     -0.77669669	      0.97864212	      0.24730205	     19.48168085	      3.32315312	     -3.66754183	    -16.61804754	     16.04643892	     -5.10765511	     20.05891684	     -1.57410038	     -6.30529975	    -17.33020716	     17.94165598	     -2.16609488	      8.01994518	      3.82783664	      3.49610561
      0.12000000	    -13.39798394	     -2.16190470	     -2.32964156	     -0.77665464	      0.97864419	      0.24734984	     19.47650567	      3.32690956	     -3.66723323	    -16.61933685	     16.04630779	     -5.10731307	     20.05549980	     -1.57667351	     -6.30082731	    -17.33685380	     17.94260198	     -2.16626517	      8.02605340	      3.82648801	      3.49591086
      0.13000000	    -13.38981842	     -2.17249438	     -2.34361874	     -0.77665352	      0.97865156	      0.24740422	     19.46177690	      3.34558231	     -3.65032184	    -16.60777309	     16.04689015	     -5.10547260	     20.05635112	     -1.59127639	     -6.27750124	    -17.36121365	     17.95611585	     -2.16833443	      8.01564700	      3.83949378	      3.52118555
      0.14000000	    -13.38633654	     -2.17249400	     -2.35096313	     -0.77661875	      0.97865637	      0.24745624	     19.45668729	      3.35019622	     -3.64984386	    -16.60921393	     16.04597272	     -5.10524419	     20.05234969	     -1.59502549	     -6.27516359	    -17.36670168	     17.95746595	     -2.16871210	      8.02252366	      3.83773986	      3.51979714
      0.15000000	    -13.38299169	     -2.17241788	     -2.36198001	     -0.77660341	      0.97865936	      0.24751126	     19.45215958	      3.35558426	     -3.64887085	    -16.60816293	     16.04496325	     -5.10512063	     20.04983751	     -1.59906695	     -6.27078945	    -17.37413835	     17.95953053	     -2.16922903	      8.02566857	      3.83724666	      3.52017327
      0.16000000	    -13.36868646	     -2.19239585	     -2.37650246	     -0.77663667	      0.97867648	      0.24757396	     19.43043361	      3.38625628	     -3.61825592	    -16.59189969	     16.03261875	     -5.10593413	     20.05070431	     -1.62612082	     -6.25654294	    -17.40750317	     17.98365732	     -2.17542601	      8.00339030	      3.86105037	      3.54963475
